<?xml version="1.0" standalone="no"?>
<!DOCTYPE svg PUBLIC "-//W3C//DTD SVG 20010904//EN"
 "http://www.w3.org/TR/2001/REC-SVG-20010904/DTD/svg10.dtd">
<svg version="1.0" xmlns="http://www.w3.org/2000/svg"
 width="640.000000pt" height="640.000000pt" viewBox="0 0 640.000000 640.000000"
 preserveAspectRatio="xMidYMid meet">
<metadata>
Created by potrace 1.14, written by Peter Selinger 2001-2017
</metadata>
<g transform="translate(0.000000,640.000000) scale(0.100000,-0.100000)"
fill="#000000" stroke="none">
<path d="M2985 6394 c-117 -9 -318 -37 -430 -60 -1247 -253 -2237 -1242 -2489
-2489 -48 -240 -60 -362 -60 -645 0 -350 32 -583 120 -890 328 -1135 1276
-2011 2429 -2244 240 -48 362 -60 645 -60 350 0 583 32 890 120 1135 328 2011
1276 2244 2429 48 240 60 362 60 645 0 282 -11 404 -60 645 -117 580 -415
1145 -831 1576 -512 530 -1159 854 -1903 954 -110 15 -511 27 -615 19z"/>
</g>
</svg>
